<svg width="32" height="32" viewBox="0 0 32 32" fill="none" xmlns="http://www.w3.org/2000/svg">
<path d="M21.8112 4C19.5412 4 17.4162 4.9691 16.0013 6.59281C14.5864 4.96904 12.4615 4 10.1914 4C6.04297 4 2.66797 7.18216 2.66797 11.0936C2.66797 14.1565 4.60496 17.6992 8.42504 21.6233C11.3649 24.6431 14.5629 26.9812 15.4731 27.6259L16.0011 28L16.5292 27.626C17.4393 26.9813 20.6375 24.6432 23.5774 21.6234C27.3976 17.6993 29.3346 14.1565 29.3346 11.0936C29.3346 7.18216 25.9596 4 21.8112 4ZM22.2821 20.5022C19.864 22.9861 17.2624 24.994 16.0011 25.9193C14.7399 24.994 12.1384 22.986 9.72033 20.5022C6.25689 16.9445 4.42621 13.691 4.42621 11.0936C4.42621 8.09633 7.01247 5.65781 10.1914 5.65781C12.2833 5.65781 14.2149 6.73284 15.2324 8.46342L16.0013 9.77121L16.7702 8.46342C17.7876 6.73289 19.7192 5.65781 21.8112 5.65781C24.9901 5.65781 27.5764 8.09627 27.5764 11.0936C27.5764 13.6911 25.7456 16.9446 22.2821 20.5022Z" fill="#82AABE" stroke="#82AABE" stroke-width="0.75" stroke-linecap="round" stroke-linejoin="round"/>
</svg>
