<svg width="22" height="22" viewBox="0 0 22 22" fill="none" xmlns="http://www.w3.org/2000/svg">
<g clip-path="url(#clip0_3203_15980)">
<path d="M18.3334 4.58334C18.3334 4.34022 18.2368 4.10707 18.0649 3.93516C17.893 3.76325 17.6598 3.66667 17.4167 3.66667H12.8334C12.5902 3.66667 12.3571 3.76325 12.1852 3.93516C12.0133 4.10707 11.9167 4.34022 11.9167 4.58334C11.9167 4.82645 12.0133 5.05961 12.1852 5.23152C12.3571 5.40343 12.5902 5.50001 12.8334 5.50001H15.1892L12.1825 8.51584C12.0966 8.60105 12.0284 8.70244 11.9819 8.81414C11.9353 8.92585 11.9114 9.04566 11.9114 9.16667C11.9114 9.28768 11.9353 9.4075 11.9819 9.5192C12.0284 9.63091 12.0966 9.73229 12.1825 9.81751C12.2677 9.90342 12.3691 9.97162 12.4808 10.0182C12.5925 10.0647 12.7123 10.0887 12.8334 10.0887C12.9544 10.0887 13.0742 10.0647 13.1859 10.0182C13.2976 9.97162 13.399 9.90342 13.4842 9.81751L16.5 6.80167V9.16667C16.5 9.40979 16.5966 9.64294 16.7685 9.81485C16.9404 9.98676 17.1736 10.0833 17.4167 10.0833C17.6598 10.0833 17.893 9.98676 18.0649 9.81485C18.2368 9.64294 18.3334 9.40979 18.3334 9.16667V4.58334Z" fill="white"/>
<path d="M9.81758 12.1825C9.73237 12.0966 9.63098 12.0284 9.51928 11.9818C9.40757 11.9353 9.28776 11.9113 9.16675 11.9113C9.04574 11.9113 8.92592 11.9353 8.81422 11.9818C8.70252 12.0284 8.60113 12.0966 8.51591 12.1825L5.50008 15.1892V12.8333C5.50008 12.5902 5.4035 12.3571 5.2316 12.1851C5.05969 12.0132 4.82653 11.9167 4.58341 11.9167C4.3403 11.9167 4.10714 12.0132 3.93523 12.1851C3.76333 12.3571 3.66675 12.5902 3.66675 12.8333V17.4167C3.66675 17.6598 3.76333 17.8929 3.93523 18.0648C4.10714 18.2368 4.3403 18.3333 4.58341 18.3333H9.16675C9.40986 18.3333 9.64302 18.2368 9.81493 18.0648C9.98684 17.8929 10.0834 17.6598 10.0834 17.4167C10.0834 17.1735 9.98684 16.9404 9.81493 16.7685C9.64302 16.5966 9.40986 16.5 9.16675 16.5H6.80175L9.81758 13.4842C9.9035 13.3989 9.97169 13.2976 10.0182 13.1859C10.0648 13.0742 10.0887 12.9543 10.0887 12.8333C10.0887 12.7123 10.0648 12.5925 10.0182 12.4808C9.97169 12.3691 9.9035 12.2677 9.81758 12.1825Z" fill="white"/>
</g>
<defs>
<clipPath id="clip0_3203_15980">
<rect width="22" height="22" fill="white"/>
</clipPath>
</defs>
</svg>
