<svg width="39" height="40" viewBox="0 0 39 40" fill="none" xmlns="http://www.w3.org/2000/svg">
<path d="M19.1901 39.8258C29.6684 39.8258 38.1628 31.3314 38.1628 20.8531C38.1628 10.3747 29.6684 1.88037 19.1901 1.88037C8.71177 1.88037 0.217392 10.3747 0.217392 20.8531C0.217392 31.3314 8.71177 39.8258 19.1901 39.8258Z" fill="#D68F30"/>
<path d="M1.50733 25.7817V27.72C1.70579 28.2327 1.9274 28.7388 2.16886 29.2283V25.7817H1.50733Z" fill="#BC6F00"/>
<path d="M3.67062 29.4302V31.7588C3.93523 32.1325 4.20977 32.4997 4.49754 32.8536V29.4302H3.67062Z" fill="#BC6F00"/>
<path d="M6.53469 32.4731V34.9837C6.85553 35.2714 7.1863 35.546 7.52699 35.8106V32.4731H6.53469Z" fill="#BC6F00"/>
<path d="M10.0609 34.7852V37.4842C10.3851 37.6628 10.7158 37.8315 11.0532 37.9936V34.7852H10.0609Z" fill="#BC6F00"/>
<path d="M14.0596 36.2573V39.1151C14.387 39.2077 14.7178 39.2904 15.0519 39.3665V36.2573H14.0596Z" fill="#BC6F00"/>
<path d="M18.7399 36.7666V39.813C18.8888 39.8163 19.0376 39.8229 19.1897 39.8229C19.3717 39.8229 19.5536 39.813 19.7322 39.8096V36.7666H18.7399Z" fill="#BC6F00"/>
<path d="M23.4206 36.2339V39.3431C23.7547 39.267 24.0854 39.181 24.4129 39.0884V36.2339H23.4206V36.2339Z" fill="#BC6F00"/>
<path d="M27.4098 34.7422V37.9539C27.7471 37.7918 28.0779 37.6165 28.4021 37.4346V34.7422H27.4098V34.7422Z" fill="#BC6F00"/>
<path d="M30.9258 32.4102V35.7509C31.2664 35.483 31.5972 35.2084 31.9181 34.9174V32.4102H30.9258Z" fill="#BC6F00"/>
<path d="M34.7655 29.3574H33.9386V32.7808C34.2264 32.4236 34.5042 32.0565 34.7655 31.6794V29.3574Z" fill="#BC6F00"/>
<path d="M36.9157 25.6958H36.2541V29.149C36.4956 28.6495 36.7172 28.1368 36.9157 27.6175V25.6958Z" fill="#BC6F00"/>
<path d="M19.1901 38.1193C29.6684 38.1193 38.1628 29.6249 38.1628 19.1465C38.1628 8.6682 29.6684 0.173828 19.1901 0.173828C8.71177 0.173828 0.217392 8.6682 0.217392 19.1465C0.217392 29.6249 8.71177 38.1193 19.1901 38.1193Z" fill="#FFF176"/>
<path d="M19.1902 36.4292C28.7351 36.4292 36.4727 28.6916 36.4727 19.1468C36.4727 9.60189 28.7351 1.86426 19.1902 1.86426C9.64534 1.86426 1.9077 9.60189 1.9077 19.1468C1.9077 28.6916 9.64534 36.4292 19.1902 36.4292Z" fill="#F2BC1A"/>
<path d="M1.87472 19.8082C1.75233 17.5325 2.14594 15.2238 2.93978 13.0605C3.76669 10.904 5.03353 8.90944 6.63112 7.21592C9.83955 3.82226 14.4967 1.85421 19.1903 1.83105C23.8839 1.85752 28.5443 3.82226 31.7461 7.21923C33.3471 8.90944 34.6106 10.9073 35.4375 13.0605C36.2346 15.2271 36.6282 17.5325 36.5026 19.8082H36.4364C36.4298 17.5424 35.9799 15.2833 35.1133 13.1929C34.25 11.1024 32.97 9.18397 31.379 7.57976C29.7847 5.97555 27.8762 4.68556 25.7891 3.81565C23.7052 2.94243 21.4461 2.49259 19.187 2.49259C16.9279 2.49259 14.6687 2.94243 12.5849 3.81565C10.4978 4.68556 8.58926 5.97555 6.99497 7.57976C5.40068 9.18397 4.12392 11.1024 3.26062 13.1929C2.39402 15.2833 1.94418 17.5424 1.93756 19.8082H1.87472V19.8082Z" fill="#E08F00"/>
<path d="M19.1901 0.177246C8.71145 0.177246 0.217392 8.67131 0.217392 19.15C0.217392 29.6286 8.71145 38.1227 19.1901 38.1227C29.6688 38.1227 38.1628 29.6286 38.1628 19.15C38.1628 8.67131 29.6688 0.177246 19.1901 0.177246ZM19.1901 36.4325C9.64421 36.4325 1.9076 28.6959 1.9076 19.15C1.9076 9.60076 9.64421 1.86415 19.1901 1.86415C28.736 1.86415 36.4726 9.60076 36.4726 19.1466C36.4726 28.6925 28.736 36.4325 19.1901 36.4325Z" fill="#FFF176"/>
<path d="M10.5867 5.89258L11.0068 7.19249L12.3762 6.66988V7.19249L11.2681 7.99625L11.6915 8.77024V9.29615L10.5867 8.49239L9.47866 9.29615V8.77024L9.90203 7.99625L8.79728 7.19249V6.66988L10.1633 7.19249L10.5867 5.89258Z" fill="#D38200"/>
<path d="M5.30121 13.3545L5.72459 14.6544L7.09065 14.1318V14.6544L5.98589 15.4582L6.40927 16.2355V16.7581L5.30121 15.9543L4.19645 16.7581V16.2355L4.61983 15.4582L3.51177 14.6544V14.1318L4.88114 14.6544L5.30121 13.3545Z" fill="#D38200"/>
<path d="M5.14614 22.5532L5.56952 23.8531L6.93558 23.3305V23.8531L5.83082 24.6569L6.2542 25.4342V25.9568L5.14614 25.153L4.04138 25.9568V25.4342L4.46476 24.6569L3.3567 23.8531V23.3305L4.72606 23.8531L5.14614 22.5532Z" fill="#D38200"/>
<path d="M10.7889 29.8564L11.2123 31.1564L12.5784 30.6337V31.1564L11.4736 31.9601L11.897 32.7341V33.26L10.7889 32.4563L9.68418 33.26V32.7341L10.1076 31.9601L8.99949 31.1564V30.6337L10.3689 31.1564L10.7889 29.8564Z" fill="#D38200"/>
<path d="M27.7936 5.89258L27.3736 7.19249L26.0042 6.66988V7.19249L27.1122 7.99625L26.6889 8.77024V9.29615L27.7936 8.49239L28.9017 9.29615V8.77024L28.4783 7.99625L29.5831 7.19249V6.66988L28.217 7.19249L27.7936 5.89258Z" fill="#D38200"/>
<path d="M33.0793 13.3545L32.6559 14.6544L31.2898 14.1318V14.6544L32.3946 15.4582L31.9712 16.2355V16.7581L33.0793 15.9543L34.184 16.7581V16.2355L33.7607 15.4582L34.8687 14.6544V14.1318L33.4994 14.6544L33.0793 13.3545Z" fill="#D38200"/>
<path d="M33.2347 22.5532L32.8113 23.8531L31.4452 23.3305V23.8531L32.55 24.6569L32.1266 25.4342V25.9568L33.2347 25.153L34.3394 25.9568V25.4342L33.916 24.6569L35.0241 23.8531V23.3305L33.6547 23.8531L33.2347 22.5532Z" fill="#D38200"/>
<path d="M27.5919 29.8564L27.1685 31.1564L25.8024 30.6337V31.1564L26.9072 31.9601L26.4838 32.7341V33.26L27.5919 32.4563L28.6966 33.26V32.7341L28.2733 31.9601L29.3813 31.1564V30.6337L28.012 31.1564L27.5919 29.8564Z" fill="#D38200"/>
<path d="M27.5918 29.3306L28.0119 30.6305H29.3813L28.2732 31.4342L28.6966 32.7341L27.5918 31.9304L26.4838 32.7341L26.9072 31.4342L25.8024 30.6305H27.1685L27.5918 29.3306Z" fill="#FFF176"/>
<path d="M33.2346 22.0308L33.6547 23.3307H35.0241L33.916 24.1344L34.3394 25.4343L33.2346 24.6306L32.1266 25.4343L32.5499 24.1344L31.4452 23.3307H32.8112L33.2346 22.0308Z" fill="#FFF176"/>
<path d="M33.0793 12.832L33.4994 14.1319H34.8687L33.7607 14.9357L34.184 16.2356L33.0793 15.4318L31.9712 16.2356L32.3946 14.9357L31.2898 14.1319H32.6559L33.0793 12.832Z" fill="#FFF176"/>
<path d="M27.7936 5.3667L28.217 6.66661H29.583L28.4783 7.47037L28.9016 8.77028L27.7936 7.96652L26.6888 8.77028L27.1122 7.47037L26.0041 6.66661H27.3735L27.7936 5.3667Z" fill="#FFF176"/>
<path d="M19.2067 32.7344L19.6301 34.0343L20.9961 33.5117V34.0343L19.8914 34.838L20.3148 35.6153V36.138L19.2067 35.3342L18.1019 36.138V35.6153L18.5253 34.838L17.4173 34.0343V33.5117L18.7866 34.0343L19.2067 32.7344Z" fill="#D38200"/>
<path d="M19.2067 32.0396L19.6301 33.3395H20.9961L19.8914 34.1432L20.3148 35.4431L19.2067 34.6394L18.1019 35.4431L18.5253 34.1432L17.4173 33.3395H18.7866L19.2067 32.0396Z" fill="#FFF176"/>
<path d="M19.2067 3.09424L19.6301 4.39415L20.9961 3.87154V4.39415L19.8914 5.19791L20.3148 5.9752V6.49781L19.2067 5.69405L18.1019 6.49781V5.9752L18.5253 5.19791L17.4173 4.39415V3.87154L18.7866 4.39415L19.2067 3.09424Z" fill="#D38200"/>
<path d="M19.2067 2.57178L19.6301 3.87169H20.9961L19.8914 4.67545L20.3148 5.97536L19.2067 5.1716L18.1019 5.97536L18.5253 4.67545L17.4172 3.87169H18.7866L19.2067 2.57178Z" fill="#FFF176"/>
<path d="M10.7889 29.3306L10.3689 30.6305H8.99949L10.1076 31.4342L9.68418 32.7341L10.7889 31.9304L11.897 32.7341L11.4736 31.4342L12.5784 30.6305H11.2123L10.7889 29.3306Z" fill="#FFF176"/>
<path d="M5.14614 22.0308L4.72606 23.3307H3.3567L4.46476 24.1344L4.04138 25.4343L5.14614 24.6306L6.2542 25.4343L5.83082 24.1344L6.93558 23.3307H5.56952L5.14614 22.0308Z" fill="#FFF176"/>
<path d="M5.30121 12.832L4.88114 14.1319H3.51177L4.61983 14.9357L4.19645 16.2356L5.30121 15.4318L6.40927 16.2356L5.98589 14.9357L7.09065 14.1319H5.72459L5.30121 12.832Z" fill="#FFF176"/>
<path d="M10.5867 5.3667L10.1633 6.66661H8.79728L9.90203 7.47037L9.47866 8.77028L10.5867 7.96652L11.6915 8.77028L11.2681 7.47037L12.3762 6.66661H11.0068L10.5867 5.3667Z" fill="#FFF176"/>
<path d="M29.5168 14.7736C29.5168 14.6579 8.8836 14.7736 8.8836 14.7736L8.69838 15.3293V16.2786C8.69838 16.4506 8.8373 16.5895 9.0093 16.5895H19.2597H29.3712C29.5432 16.5895 29.6821 16.4506 29.6821 16.2786V15.3558L29.5168 14.7736Z" fill="#D38200"/>
<path d="M29.5463 27.1113H8.96936L7.59338 27.8026L7.60992 28.6924C7.61323 28.7883 7.69261 28.8677 7.79184 28.8677H30.5915C30.6874 28.8677 30.7701 28.7916 30.7734 28.6924L30.79 27.8192L29.5463 27.1113Z" fill="#D38200"/>
<path d="M12.287 24.4056H11.1028C10.9077 24.4056 10.7489 23.7903 10.7489 23.5952L12.6376 23.5356C12.6376 23.7308 12.4788 24.4056 12.287 24.4056Z" fill="#D38200"/>
<path d="M12.6904 18.0184H10.6959C10.547 18.0184 10.418 17.9192 10.375 17.777L10.2196 16.4771H13.1402L13.0079 17.777C12.9682 17.9192 12.8392 18.0184 12.6904 18.0184Z" fill="#D38200"/>
<path d="M10.696 24.7993H12.6905C12.8393 24.7993 13.1337 24.8919 13.1734 25.0342C13.1734 25.0342 13.1635 25.6527 13.1635 25.8975C13.1635 26.1422 13.0642 26.3208 12.8426 26.3208H10.5438C10.3222 26.3208 10.223 26.1224 10.223 25.8975C10.223 25.6725 10.213 25.0408 10.213 25.0408C10.256 24.8985 10.5471 24.7993 10.696 24.7993Z" fill="#D38200"/>
<path d="M27.6672 24.4056H26.4831C26.288 24.4056 26.1292 23.7903 26.1292 23.5952L28.0179 23.5356C28.0179 23.7308 27.8624 24.4056 27.6672 24.4056Z" fill="#D38200"/>
<path d="M28.0707 18.0184H26.0762C25.9273 18.0184 25.7983 17.9192 25.7553 17.777L25.5998 16.4771H28.5205L28.3882 17.777C28.3485 17.9192 28.2195 18.0184 28.0707 18.0184Z" fill="#D38200"/>
<path d="M26.0762 24.7993H28.0707C28.2196 24.7993 28.514 24.8919 28.5536 25.0342C28.5536 25.0342 28.5437 25.6527 28.5437 25.8975C28.5437 26.1422 28.4445 26.3208 28.2229 26.3208H25.9241C25.7024 26.3208 25.6032 26.1224 25.6032 25.8975C25.6032 25.6725 25.5933 25.0408 25.5933 25.0408C25.6363 24.8985 25.9274 24.7993 26.0762 24.7993Z" fill="#D38200"/>
<path d="M22.541 24.4056H21.3568C21.1617 24.4056 21.0029 23.7903 21.0029 23.5952L22.8916 23.5356C22.8916 23.7308 22.7361 24.4056 22.541 24.4056Z" fill="#D38200"/>
<path d="M22.9444 18.0184H20.9498C20.801 18.0184 20.672 17.9192 20.629 17.777L20.4735 16.4771H23.3942L23.2619 17.777C23.2222 17.9192 23.0932 18.0184 22.9444 18.0184Z" fill="#D38200"/>
<path d="M20.9499 24.7993H22.9444C23.0933 24.7993 23.3876 24.8919 23.4273 25.0342C23.4273 25.0342 23.4174 25.6527 23.4174 25.8975C23.4174 26.1422 23.3182 26.3208 23.0966 26.3208H20.7978C20.5761 26.3208 20.4769 26.1224 20.4769 25.8975C20.4769 25.6725 20.467 25.0408 20.467 25.0408C20.51 24.8985 20.8011 24.7993 20.9499 24.7993Z" fill="#D38200"/>
<path d="M17.4143 24.4056H16.2301C16.035 24.4056 15.8762 23.7903 15.8762 23.5952L17.7649 23.5356C17.7649 23.7308 17.6094 24.4056 17.4143 24.4056Z" fill="#D38200"/>
<path d="M17.8177 18.0184H15.8232C15.6743 18.0184 15.5453 17.9192 15.5023 17.777L15.3469 16.4771H18.2675L18.1352 17.777C18.0955 17.9192 17.9665 18.0184 17.8177 18.0184Z" fill="#D38200"/>
<path d="M15.8232 24.7993H17.8178C17.9666 24.7993 18.261 24.8919 18.3007 25.0342C18.3007 25.0342 18.2907 25.6527 18.2907 25.8975C18.2907 26.1422 18.1915 26.3208 17.9699 26.3208H15.6711C15.4495 26.3208 15.3502 26.1224 15.3502 25.8975C15.3502 25.6725 15.3403 25.0408 15.3403 25.0408C15.3833 24.8985 15.6744 24.7993 15.8232 24.7993Z" fill="#D38200"/>
<path d="M29.6656 13.8873C29.6656 13.7715 29.6061 13.6624 29.5168 13.6094L19.2035 7.75488L8.87699 13.6028C8.77776 13.6624 8.71491 13.7715 8.71491 13.8873L8.69838 15.3327C8.69838 15.5146 8.84722 15.6635 9.02914 15.6635H29.3481C29.53 15.6635 29.6788 15.5146 29.6788 15.3327L29.6656 13.8873Z" fill="#FFF176"/>
<path d="M27.0758 13.4938L19.1904 9.01855L11.3049 13.4938H27.0758Z" fill="#F2BC1A"/>
<path d="M24.1746 12.9481L19.19 10.1167L14.2053 12.9481H24.1746Z" fill="#FFF176"/>
<path d="M28.9114 25.9604H9.46903C9.27719 25.9604 9.09527 26.0431 8.96627 26.1854L7.62997 27.6771C7.53736 27.7797 7.61013 27.9417 7.74905 27.9417H30.6314C30.767 27.9417 30.8398 27.7797 30.7505 27.6771L29.4109 26.1854C29.2852 26.0431 29.1 25.9604 28.9114 25.9604Z" fill="#FFF176"/>
<path d="M27.6677 23.8069H26.4835C26.2884 23.8069 26.1296 23.6482 26.1296 23.453V18.1674C26.1296 17.9722 26.2884 17.8135 26.4835 17.8135H27.6677C27.8628 17.8135 28.0216 17.9722 28.0216 18.1674V23.4563C28.0216 23.6515 27.8628 23.8069 27.6677 23.8069Z" fill="#FFF176"/>
<path d="M28.0746 17.4198H26.08C25.9312 17.4198 25.8022 17.3205 25.7592 17.1783L25.607 16.6524C25.5442 16.4407 25.7063 16.229 25.9279 16.229H28.2267C28.4483 16.229 28.6071 16.4407 28.5476 16.6524L28.3954 17.1783C28.3524 17.3205 28.2201 17.4198 28.0746 17.4198Z" fill="#FFF176"/>
<path d="M26.0766 24.2036H28.0711C28.22 24.2036 28.349 24.3028 28.392 24.4451L28.5441 24.971C28.6069 25.1827 28.4449 25.3944 28.2233 25.3944H25.9244C25.7028 25.3944 25.5441 25.1827 25.6036 24.971L25.7557 24.4451C25.7987 24.2995 25.9311 24.2036 26.0766 24.2036Z" fill="#FFF176"/>
<path d="M12.287 23.8069H11.1028C10.9077 23.8069 10.7489 23.6482 10.7489 23.453V18.1674C10.7489 17.9722 10.9077 17.8135 11.1028 17.8135H12.287C12.4821 17.8135 12.6409 17.9722 12.6409 18.1674V23.4563C12.6376 23.6515 12.4788 23.8069 12.287 23.8069Z" fill="#FFF176"/>
<path d="M12.6907 17.4198H10.6962C10.5473 17.4198 10.4183 17.3205 10.3753 17.1783L10.2232 16.6524C10.1604 16.4407 10.3224 16.229 10.544 16.229H12.8429C13.0645 16.229 13.2232 16.4407 13.1637 16.6524L13.0115 17.1783C12.9685 17.3205 12.8395 17.4198 12.6907 17.4198Z" fill="#FFF176"/>
<path d="M10.6962 24.2036H12.6907C12.8395 24.2036 12.9685 24.3028 13.0115 24.4451L13.1637 24.971C13.2265 25.1827 13.0645 25.3944 12.8429 25.3944H10.544C10.3224 25.3944 10.1637 25.1827 10.2232 24.971L10.3753 24.4451C10.4183 24.2995 10.5473 24.2036 10.6962 24.2036Z" fill="#FFF176"/>
<path d="M17.4138 23.8069H16.2297C16.0345 23.8069 15.8758 23.6482 15.8758 23.453V18.1674C15.8758 17.9722 16.0345 17.8135 16.2297 17.8135H17.4138C17.609 17.8135 17.7677 17.9722 17.7677 18.1674V23.4563C17.7644 23.6515 17.609 23.8069 17.4138 23.8069Z" fill="#FFF176"/>
<path d="M17.8172 17.4198H15.8227C15.6738 17.4198 15.5448 17.3205 15.5018 17.1783L15.3497 16.6524C15.2868 16.4407 15.4489 16.229 15.6705 16.229H17.9693C18.191 16.229 18.3497 16.4407 18.2902 16.6524L18.138 17.1783C18.095 17.3205 17.966 17.4198 17.8172 17.4198Z" fill="#FFF176"/>
<path d="M15.8227 24.2036H17.8172C17.966 24.2036 18.095 24.3028 18.138 24.4451L18.2902 24.971C18.353 25.1827 18.191 25.3944 17.9694 25.3944H15.6705C15.4489 25.3944 15.2902 25.1827 15.3497 24.971L15.5018 24.4451C15.5448 24.2995 15.6738 24.2036 15.8227 24.2036Z" fill="#FFF176"/>
<path d="M22.5406 23.8069H21.3564C21.1613 23.8069 21.0025 23.6482 21.0025 23.453V18.1674C21.0025 17.9722 21.1613 17.8135 21.3564 17.8135H22.5406C22.7357 17.8135 22.8945 17.9722 22.8945 18.1674V23.4563C22.8912 23.6515 22.7357 23.8069 22.5406 23.8069Z" fill="#FFF176"/>
<path d="M22.944 17.4198H20.9495C20.8006 17.4198 20.6716 17.3205 20.6286 17.1783L20.4765 16.6524C20.4136 16.4407 20.5757 16.229 20.7973 16.229H23.0961C23.3177 16.229 23.4765 16.4407 23.417 16.6524L23.2648 17.1783C23.2218 17.3205 23.0928 17.4198 22.944 17.4198Z" fill="#FFF176"/>
<path d="M20.9494 24.2036H22.944C23.0928 24.2036 23.2218 24.3028 23.2648 24.4451L23.417 24.971C23.4798 25.1827 23.3177 25.3944 23.0961 25.3944H20.7973C20.5757 25.3944 20.4169 25.1827 20.4764 24.971L20.6286 24.4451C20.6716 24.2995 20.8039 24.2036 20.9494 24.2036Z" fill="#FFF176"/>
</svg>
