<svg width="14" height="14" viewBox="0 0 14 14" fill="none" xmlns="http://www.w3.org/2000/svg">
<path d="M11.2726 7.58788L11.0722 7.82055C10.9834 7.92359 10.9404 8.05835 10.9532 8.19375L10.9817 8.49697L11.0505 9.24199C11.0736 9.49192 10.9078 9.72022 10.663 9.77562L9.9393 9.9394L9.63983 10.0071C9.506 10.0374 9.39049 10.1213 9.32037 10.2393L9.16354 10.503L8.78766 11.1409C8.65962 11.3582 8.38983 11.4461 8.15837 11.3459L7.48475 11.0545L7.19671 10.9321C7.07101 10.8787 6.92893 10.879 6.80348 10.933L6.52111 11.0545L5.84642 11.3464C5.61542 11.4463 5.34615 11.359 5.2178 11.1425L4.84232 10.5091L4.6855 10.2453C4.61537 10.1274 4.49987 10.0435 4.36604 10.0132L4.06657 9.94546L3.34269 9.78163C3.09798 9.72625 2.9322 9.49809 2.95515 9.24824L3.02414 8.49697L3.05268 8.19375C3.06543 8.05835 3.02246 7.92359 2.93369 7.82055L2.73323 7.58788L2.23985 7.02565C2.07469 6.83744 2.07421 6.55609 2.23874 6.36733L2.73323 5.8L2.93167 5.56967C3.02163 5.46526 3.0645 5.32835 3.05015 5.19128L3.01808 4.88485L2.94954 4.14608C2.92634 3.89608 3.09215 3.66764 3.33703 3.61222L4.06051 3.44849L4.35998 3.38075C4.4938 3.35048 4.60931 3.26654 4.67944 3.14861L4.83627 2.88485L5.21215 2.24699C5.34018 2.02973 5.60997 1.94181 5.84143 2.04194L6.51505 2.33334L6.80309 2.45575C6.92879 2.50917 7.07087 2.50885 7.19633 2.45486L7.47869 2.33334L8.15231 2.04194C8.38377 1.94181 8.65356 2.02973 8.7816 2.24699L9.15748 2.88485L9.31431 3.14861C9.38443 3.26654 9.49994 3.35048 9.63376 3.38075L9.93323 3.44849L10.6569 3.61227C10.9017 3.66767 11.0675 3.89597 11.0444 4.14589L10.9757 4.89091L10.9471 5.19413C10.9344 5.32954 10.9773 5.46429 11.0661 5.56734L11.2666 5.8L11.7611 6.36351C11.9258 6.55116 11.9268 6.83154 11.7634 7.02038L11.2726 7.58788Z" fill="#00DA93"/>
<path d="M13.3798 7.01999C13.5441 6.83147 13.5439 6.55057 13.3792 6.36234L12.329 5.16146C12.2388 5.05836 12.1949 4.9228 12.2075 4.78642L12.3536 3.20002C12.3767 2.95028 12.2111 2.72212 11.9665 2.66657L10.4157 2.31432C10.2818 2.2839 10.1663 2.19975 10.0963 2.0816L9.2844 0.711204C9.15635 0.495066 8.88779 0.407509 8.65695 0.506636L7.1972 1.13347C7.07124 1.18756 6.9286 1.18756 6.80263 1.13347L5.34289 0.506636C5.11205 0.407509 4.84349 0.495066 4.71543 0.711204L3.9039 2.08093C3.83367 2.19947 3.71764 2.28377 3.5832 2.31394L2.03461 2.6614C1.78945 2.71641 1.62319 2.94482 1.64618 3.19503L1.79242 4.78649C1.80495 4.92283 1.76102 5.05834 1.67089 5.1614L0.621116 6.36176C0.456279 6.55024 0.456279 6.83159 0.621117 7.02007L1.67089 8.22042C1.76102 8.32348 1.80495 8.459 1.79242 8.59533L1.64607 10.188C1.62312 10.4377 1.78869 10.6657 2.03322 10.7213L3.58369 11.0735C3.71784 11.1039 3.8335 11.1883 3.90346 11.3068L4.71508 12.681C4.84322 12.8979 5.11276 12.9856 5.34403 12.8856L6.80217 12.2552C6.92839 12.2006 7.07152 12.2004 7.19788 12.2547L8.65695 12.8812C8.88779 12.9804 9.15635 12.8928 9.2844 12.6767L10.0963 11.3063C10.1663 11.1881 10.2818 11.104 10.4157 11.0736L11.9665 10.7213C12.2111 10.6658 12.3767 10.4376 12.3536 10.1879L12.2074 8.60094C12.1949 8.46487 12.2386 8.3296 12.3284 8.22658L13.3798 7.01999ZM11.2726 7.58788L11.0722 7.82055C10.9834 7.92359 10.9405 8.05835 10.9532 8.19376L10.9817 8.49697L11.0505 9.24199C11.0736 9.49192 10.9078 9.72022 10.663 9.77562L9.93931 9.9394L9.63984 10.0071C9.50602 10.0374 9.39051 10.1213 9.32038 10.2393L9.16356 10.503L8.78767 11.1409C8.65964 11.3582 8.38985 11.4461 8.15839 11.3459L7.48477 11.0545L7.19673 10.9321C7.07103 10.8787 6.92895 10.879 6.80349 10.933L6.52113 11.0545L5.84644 11.3464C5.61544 11.4463 5.34617 11.359 5.21782 11.1425L4.84234 10.5091L4.68551 10.2453C4.61539 10.1274 4.49988 10.0435 4.36605 10.0132L4.06659 9.94546L3.3427 9.78163C3.09799 9.72625 2.93222 9.49809 2.95517 9.24824L3.02416 8.49697L3.0527 8.19376C3.06544 8.05835 3.02248 7.92359 2.9337 7.82055L2.73325 7.58788L2.23987 7.02565C2.07471 6.83745 2.07423 6.55609 2.23876 6.36733L2.73325 5.8L2.93169 5.56968C3.02164 5.46526 3.06451 5.32835 3.05017 5.19128L3.0181 4.88485L2.94955 4.14608C2.92636 3.89608 3.09217 3.66764 3.33705 3.61222L4.06052 3.44849L4.36 3.38075C4.49382 3.35048 4.60933 3.26654 4.67945 3.14861L4.83628 2.88485L5.21216 2.24699C5.3402 2.02973 5.60999 1.94181 5.84145 2.04194L6.51507 2.33334L6.80311 2.45575C6.92881 2.50918 7.07089 2.50885 7.19634 2.45486L7.47871 2.33334L8.15233 2.04194C8.38379 1.94181 8.65358 2.02973 8.78161 2.24699L9.15749 2.88485L9.31432 3.14861C9.38445 3.26654 9.49995 3.35048 9.63378 3.38075L9.93325 3.44849L10.6569 3.61227C10.9017 3.66767 11.0675 3.89597 11.0444 4.14589L10.9757 4.89091L10.9471 5.19413C10.9344 5.32954 10.9774 5.4643 11.0661 5.56734L11.2666 5.8L11.7611 6.36351C11.9258 6.55117 11.9268 6.83154 11.7635 7.02038L11.2726 7.58788Z" fill="#00DA93"/>
<path d="M6.19665 7.40205C6.00119 7.59818 5.68356 7.59811 5.48818 7.40189L4.79102 6.70173C4.59542 6.50528 4.27733 6.50548 4.08197 6.70216L3.89002 6.8954C3.69606 7.09067 3.69639 7.40598 3.89075 7.60085L5.4883 9.20261C5.68368 9.3985 6.00099 9.39849 6.19635 9.20259L9.93941 5.44933C10.1338 5.25446 10.1341 4.93916 9.94012 4.7439L9.748 4.55048C9.5527 4.35386 9.23474 4.3536 9.03911 4.54989L6.19665 7.40205Z" fill="white"/>
</svg>
