<svg width="24" height="24" viewBox="0 0 24 24" fill="none" xmlns="http://www.w3.org/2000/svg">
<mask id="mask0_3634_16992" style="mask-type:alpha" maskUnits="userSpaceOnUse" x="0" y="0" width="24" height="24">
<rect width="24" height="24" fill="#D9D9D9"/>
</mask>
<g mask="url(#mask0_3634_16992)">
<path d="M12.0005 22.2996L9.20049 19.4996H5.30049C4.80049 19.4996 4.37549 19.3246 4.02549 18.9746C3.67549 18.6246 3.50049 18.1996 3.50049 17.6996V4.29963C3.50049 3.79963 3.67549 3.37463 4.02549 3.02463C4.37549 2.67463 4.80049 2.49963 5.30049 2.49963H18.7005C19.2005 2.49963 19.6255 2.67463 19.9755 3.02463C20.3255 3.37463 20.5005 3.79963 20.5005 4.29963V17.6996C20.5005 18.1996 20.3255 18.6246 19.9755 18.9746C19.6255 19.3246 19.2005 19.4996 18.7005 19.4996H14.8005L12.0005 22.2996ZM5.30049 17.9996H9.82549L12.0005 20.1746L14.1755 17.9996H18.7005C18.7838 17.9996 18.8548 17.9706 18.9135 17.9126C18.9715 17.854 19.0005 17.783 19.0005 17.6996V4.29963C19.0005 4.2163 18.9715 4.1453 18.9135 4.08663C18.8548 4.02863 18.7838 3.99963 18.7005 3.99963H5.30049C5.21716 3.99963 5.14649 4.02863 5.08849 4.08663C5.02982 4.1453 5.00049 4.2163 5.00049 4.29963V17.6996C5.00049 17.783 5.02982 17.854 5.08849 17.9126C5.14649 17.9706 5.21716 17.9996 5.30049 17.9996ZM12.0005 16.4496C12.2838 16.4496 12.5215 16.3496 12.7135 16.1496C12.9048 15.9496 13.0005 15.708 13.0005 15.4246C13.0005 15.1413 12.9048 14.8996 12.7135 14.6996C12.5215 14.4996 12.2838 14.3996 12.0005 14.3996C11.7005 14.3996 11.4548 14.4996 11.2635 14.6996C11.0715 14.8996 10.9755 15.1413 10.9755 15.4246C10.9755 15.708 11.0715 15.9496 11.2635 16.1496C11.4548 16.3496 11.7005 16.4496 12.0005 16.4496ZM12.7005 12.8746C12.7005 12.3413 12.7715 11.937 12.9135 11.6616C13.0548 11.387 13.3338 11.0413 13.7505 10.6246C14.2672 10.108 14.6422 9.66197 14.8755 9.28663C15.1088 8.91197 15.2255 8.48297 15.2255 7.99963C15.2255 7.1663 14.9422 6.4953 14.3755 5.98663C13.8088 5.47863 13.0755 5.22463 12.1755 5.22463C11.3588 5.22463 10.6632 5.43297 10.0885 5.84963C9.51315 6.2663 9.10049 6.80797 8.85049 7.47463L10.1505 7.99963C10.2838 7.5663 10.5172 7.2163 10.8505 6.94963C11.1838 6.68297 11.6005 6.54963 12.1005 6.54963C12.6338 6.54963 13.0548 6.69563 13.3635 6.98763C13.6715 7.27897 13.8255 7.63297 13.8255 8.04963C13.8255 8.3663 13.7338 8.6703 13.5505 8.96163C13.3672 9.25363 13.0838 9.57463 12.7005 9.92463C12.1505 10.4246 11.7755 10.883 11.5755 11.2996C11.3755 11.7163 11.2755 12.2413 11.2755 12.8746H12.7005Z" fill="#00DA93"/>
</g>
</svg>
