<svg width="32" height="32" viewBox="0 0 32 32" fill="none" xmlns="http://www.w3.org/2000/svg">
<circle cx="16" cy="16" r="16" fill="white"/>
<mask id="mask0_3632_16994" style="mask-type:alpha" maskUnits="userSpaceOnUse" x="6" y="6" width="20" height="20">
<rect x="6" y="6" width="20" height="20" fill="#D9D9D9"/>
</mask>
<g mask="url(#mask0_3632_16994)">
<path d="M16.0003 24.583L13.667 22.2497H10.417C10.0003 22.2497 9.64616 22.1038 9.35449 21.8122C9.06283 21.5205 8.91699 21.1663 8.91699 20.7497V9.58301C8.91699 9.16634 9.06283 8.81217 9.35449 8.52051C9.64616 8.22884 10.0003 8.08301 10.417 8.08301H21.5837C22.0003 8.08301 22.3545 8.22884 22.6462 8.52051C22.9378 8.81217 23.0837 9.16634 23.0837 9.58301V20.7497C23.0837 21.1663 22.9378 21.5205 22.6462 21.8122C22.3545 22.1038 22.0003 22.2497 21.5837 22.2497H18.3337L16.0003 24.583ZM10.417 20.9997H14.1878L16.0003 22.8122L17.8128 20.9997H21.5837C21.6531 20.9997 21.7123 20.9755 21.7612 20.9272C21.8095 20.8783 21.8337 20.8191 21.8337 20.7497V9.58301C21.8337 9.51356 21.8095 9.4544 21.7612 9.40551C21.7123 9.35717 21.6531 9.33301 21.5837 9.33301H10.417C10.3475 9.33301 10.2887 9.35717 10.2403 9.40551C10.1914 9.4544 10.167 9.51356 10.167 9.58301V20.7497C10.167 20.8191 10.1914 20.8783 10.2403 20.9272C10.2887 20.9755 10.3475 20.9997 10.417 20.9997ZM16.0003 19.708C16.2364 19.708 16.4345 19.6247 16.5945 19.458C16.7539 19.2913 16.8337 19.09 16.8337 18.8538C16.8337 18.6177 16.7539 18.4163 16.5945 18.2497C16.4345 18.083 16.2364 17.9997 16.0003 17.9997C15.7503 17.9997 15.5456 18.083 15.3862 18.2497C15.2262 18.4163 15.1462 18.6177 15.1462 18.8538C15.1462 19.09 15.2262 19.2913 15.3862 19.458C15.5456 19.6247 15.7503 19.708 16.0003 19.708ZM16.5837 16.7288C16.5837 16.2844 16.6428 15.9475 16.7612 15.718C16.8789 15.4891 17.1114 15.2011 17.4587 14.8538C17.8892 14.4233 18.2017 14.0516 18.3962 13.7388C18.5906 13.4266 18.6878 13.0691 18.6878 12.6663C18.6878 11.9719 18.4517 11.4127 17.9795 10.9888C17.5073 10.5655 16.8962 10.3538 16.1462 10.3538C15.4656 10.3538 14.8859 10.5275 14.407 10.8747C13.9275 11.2219 13.5837 11.6733 13.3753 12.2288L14.4587 12.6663C14.5698 12.3052 14.7642 12.0136 15.042 11.7913C15.3198 11.5691 15.667 11.458 16.0837 11.458C16.5281 11.458 16.8789 11.5797 17.1362 11.823C17.3928 12.0658 17.5212 12.3608 17.5212 12.708C17.5212 12.9719 17.4448 13.2252 17.292 13.468C17.1392 13.7113 16.9031 13.9788 16.5837 14.2705C16.1253 14.6872 15.8128 15.0691 15.6462 15.4163C15.4795 15.7636 15.3962 16.2011 15.3962 16.7288H16.5837Z" fill="#AF5333"/>
</g>
</svg>
