<svg width="179" height="179" viewBox="0 0 179 179" fill="none" xmlns="http://www.w3.org/2000/svg">
<circle cx="89.4915" cy="89.4915" r="88.9915" fill="white" stroke="#D9E5EB"/>
<path d="M89.4867 129.267C111.453 129.267 129.261 111.459 129.261 89.4928C129.261 67.5262 111.453 49.7188 89.4867 49.7188C67.5201 49.7188 49.7126 67.5262 49.7126 89.4928C49.7126 111.459 67.5201 129.267 89.4867 129.267Z" fill="white"/>
<path d="M112.273 72.9202C114.178 72.9202 116.043 72.713 117.824 72.423C112.024 62.8109 101.5 56.3477 89.4851 56.3477C87.5793 56.3477 85.7149 56.5548 83.9333 56.8448C89.734 66.4569 100.258 72.9202 112.273 72.9202Z" fill="#00CDB4"/>
<path d="M73.2388 60.6143C66.154 64.6331 60.6851 71.1792 58.075 79.0097C65.1597 74.9909 70.6286 68.4448 73.2388 60.6143Z" fill="#00CDB4"/>
<path d="M89.4913 48.0605C66.6213 48.0605 48.0601 66.6218 48.0601 89.4918C48.0601 112.362 66.6213 130.923 89.4913 130.923C112.361 130.923 130.923 112.362 130.923 89.4918C130.923 66.6218 112.361 48.0605 89.4913 48.0605ZM89.4913 56.3468C101.506 56.3468 112.03 62.8101 117.83 72.4221C116.049 72.7121 114.184 72.9193 112.279 72.9193C100.263 72.9193 89.7399 66.456 83.9395 56.844C85.7211 56.554 87.5855 56.3468 89.4913 56.3468ZM73.2503 60.6142C70.6401 68.4447 65.1712 74.9909 58.0864 79.0097C60.6966 71.1792 66.1655 64.633 73.2503 60.6142ZM89.4913 122.637C71.2201 122.637 56.3463 107.763 56.3463 89.4918C56.3463 89.2846 56.3877 89.0775 56.3877 88.8703C67.1599 84.8101 75.7776 76.4824 80.1693 65.876C87.7512 75.2395 99.3105 81.2056 112.279 81.2056C115.386 81.2056 118.369 80.8327 121.269 80.2112C122.139 83.1528 122.636 86.2602 122.636 89.4918C122.636 107.763 107.763 122.637 89.4913 122.637Z" fill="#28241C"/>
<path d="M77.051 98.8136C79.9112 98.8136 82.2299 96.495 82.2299 93.6347C82.2299 90.7749 79.9112 88.4561 77.051 88.4561C74.1907 88.4561 71.8721 90.7749 71.8721 93.6347C71.8721 96.495 74.1907 98.8136 77.051 98.8136Z" fill="#28241C"/>
<path d="M101.908 98.8136C104.769 98.8136 107.087 96.495 107.087 93.6347C107.087 90.7749 104.769 88.4561 101.908 88.4561C99.0481 88.4561 96.7295 90.7749 96.7295 93.6347C96.7295 96.495 99.0481 98.8136 101.908 98.8136Z" fill="#28241C"/>
</svg>
