<svg width="96" height="96" viewBox="0 0 96 96" fill="none" xmlns="http://www.w3.org/2000/svg">
<path d="M76.2701 29.8415C75.5376 28.0136 76.5142 25.8954 78.1837 25.1563L76.1513 20.062C74.429 20.6757 72.2052 19.8377 71.4727 18.0032C71.4331 17.9108 71.3078 17.7459 71.3144 17.7393L10.8364 41.8777C10.843 41.8777 10.9222 42.0558 10.9618 42.1548C11.7074 44.0289 10.7374 46.1735 8.86334 46.9257C8.71157 46.9851 8.35523 47.1171 8.34863 47.0973L10.4009 52.2444C10.3943 52.2246 10.744 52.0728 10.8892 52.0134C12.7632 51.2677 14.9144 52.1652 15.6601 54.0392C16.4058 55.9133 15.4489 58.0513 13.5749 58.8036C13.4231 58.863 13.08 58.9883 13.0734 58.9685L15.1256 64.1156C15.119 64.0958 15.4687 63.944 15.6139 63.8846C17.488 63.139 19.6392 64.0364 20.3848 65.9105C21.1305 67.7845 20.1737 69.9226 18.2996 70.6748C18.1478 70.7342 17.8047 70.8596 17.7981 70.8398L19.8503 75.9868C19.8437 75.967 20.1935 75.8153 20.3386 75.7559C22.2127 75.0102 24.3639 75.9077 25.1162 77.7817C25.1558 77.8741 25.2548 78.0523 25.2482 78.0589L85.7261 53.9205C85.7195 53.9205 85.6997 53.7159 85.6601 53.6235C84.9277 51.7957 85.9703 49.651 87.6398 48.912L85.6074 43.8177C83.8851 44.4314 81.7207 43.567 80.9882 41.7391C80.2557 39.9112 81.2324 37.793 82.9018 37.0539L80.8694 31.9597C79.1669 32.5338 77.0025 31.6759 76.2701 29.8415V29.8415Z" fill="white"/>
<path fill-rule="evenodd" clip-rule="evenodd" d="M89.8225 53.1193C89.8234 53.1239 89.8243 53.1286 89.8252 53.1332C90.2029 55.0987 89.1323 57.0556 87.2735 57.7975L26.7955 81.9359C24.9555 82.6703 22.8528 82.0101 21.7629 80.3558C21.6517 80.1871 21.5542 80.0128 21.4702 79.8343C21.409 79.86 21.3469 79.8844 21.2839 79.9074C19.163 80.683 16.8098 79.631 15.9734 77.5332L13.9462 72.449C13.9077 72.3561 13.8717 72.2599 13.8385 72.1602C13.377 70.7757 13.6812 69.3162 14.5267 68.2475C13.098 68.0392 11.8197 67.0944 11.2486 65.662L9.22143 60.5777C9.183 60.4849 9.14701 60.3887 9.11377 60.289C8.65226 58.9044 8.95649 57.445 9.80193 56.3763C8.37327 56.1679 7.095 55.2231 6.52389 53.7908L4.49811 48.71C4.45916 48.6161 4.42269 48.5187 4.38904 48.4177C3.67945 46.289 4.78007 43.983 6.87476 43.1928C6.81828 43.0223 6.77229 42.8464 6.73761 42.666C6.35986 40.7005 7.43043 38.7435 9.28927 38.0016L69.7673 13.8632C71.6072 13.1288 73.7099 13.7891 74.7999 15.4434C74.8308 15.4903 74.8606 15.5376 74.8894 15.5853C74.9194 15.6313 74.9609 15.6962 75.005 15.7694C75.0309 15.8122 75.0817 15.8971 75.1427 16.0121C77.146 15.5109 79.2476 16.5593 80.0282 18.5159L82.0606 23.6101C82.6448 25.0744 82.3422 26.6789 81.3993 27.8193C82.8577 28.0069 84.1668 28.961 84.7463 30.4135L86.7787 35.5078C87.3564 36.9558 87.0669 38.5409 86.1486 39.6788C87.601 39.8698 88.9056 40.8211 89.4843 42.2715L91.5167 47.3658C92.2974 49.3226 91.4943 51.53 89.6958 52.5453C89.7225 52.6403 89.7402 52.7142 89.7505 52.7585C89.7855 52.9081 89.8082 53.0354 89.8198 53.1034C89.8204 53.1068 89.8213 53.1124 89.8225 53.1193Z" fill="white"/>
<path d="M76.2701 29.8415C75.5376 28.0136 76.5142 25.8954 78.1837 25.1563L76.1513 20.062C74.429 20.6757 72.2052 19.8377 71.4727 18.0032C71.4331 17.9108 71.3078 17.7459 71.3144 17.7393L10.8364 41.8777C10.843 41.8777 10.9222 42.0558 10.9618 42.1548C11.7074 44.0289 10.7374 46.1735 8.86334 46.9257C8.71157 46.9851 8.35523 47.1171 8.34863 47.0973L10.4009 52.2444C10.3943 52.2246 10.744 52.0728 10.8892 52.0134C12.7632 51.2677 14.9144 52.1652 15.6601 54.0392C16.4058 55.9133 15.4489 58.0513 13.5749 58.8036C13.4231 58.863 13.08 58.9883 13.0734 58.9685L15.1256 64.1156C15.119 64.0958 15.4687 63.944 15.6139 63.8846C17.488 63.139 19.6392 64.0364 20.3848 65.9105C21.1305 67.7845 20.1737 69.9225 18.2996 70.6748C18.1478 70.7342 17.8047 70.8596 17.7981 70.8398L19.8503 75.9868C19.8437 75.967 20.1935 75.8153 20.3386 75.7559C22.2127 75.0102 24.3639 75.9077 25.1162 77.7817C25.1558 77.8741 25.2548 78.0523 25.2482 78.0589L85.7261 53.9205C85.7195 53.9205 85.6997 53.7159 85.6601 53.6235C84.9277 51.7957 85.9703 49.651 87.6398 48.912L85.6074 43.8177C83.8851 44.4314 81.7207 43.567 80.9882 41.7391C80.2557 39.9112 81.2324 37.793 82.9018 37.0539L80.8694 31.9597C79.1669 32.5338 77.0025 31.6759 76.2701 29.8415V29.8415Z" fill="#00CDB4"/>
<path d="M69.2822 24.8604L16.6523 45.8682L26.7404 71.1413L79.3702 50.1335L69.2822 24.8604Z" fill="#09B9A3"/>
<path d="M25.7203 39.1175L23.6489 39.9443L36.0315 70.9658L38.1028 70.139L25.7203 39.1175Z" fill="#00CDB4"/>
<path d="M60.0919 25.0238L58.0205 25.8506L70.403 56.8721L72.4744 56.0452L60.0919 25.0238Z" fill="#00CDB4"/>
<path d="M52.1841 56.6961C52.2544 56.6917 52.3221 56.6673 52.3796 56.6255C52.4371 56.5838 52.4822 56.5264 52.5099 56.4597L53.0657 55.1586C55.855 48.6665 57.6967 44.3757 56.2061 40.9111C55.7825 39.8931 55.0627 39.0347 54.1466 38.4551C53.2305 37.8755 52.1633 37.6033 51.0931 37.6762C50.4682 37.7194 49.8559 37.8752 49.284 38.1364C48.5377 38.482 47.8726 38.989 47.3337 39.6232C46.7949 40.2574 46.3948 41.004 46.1604 41.8126C46.1447 41.8707 46.1121 41.9225 46.0669 41.9607C46.0216 41.999 45.966 42.0219 45.9076 42.0264C45.859 42.0301 45.8103 42.0205 45.7664 41.9985C44.8717 41.5557 43.882 41.3591 42.8937 41.4278C42.2457 41.4689 41.6102 41.6275 41.0165 41.8964C40.3834 42.1765 39.8113 42.5841 39.3336 43.0953C38.8558 43.6066 38.4821 44.2112 38.2342 44.874C37.9862 45.5368 37.8691 46.2445 37.8895 46.9556C37.91 47.6667 38.0677 48.3671 38.3533 49.0159C39.8416 52.4747 44.1619 53.9657 50.6978 56.2212L52.038 56.6803C52.0853 56.6953 52.1349 56.7007 52.1841 56.6961Z" fill="#185669"/>
<path d="M70.5093 20.194C71.5585 21.4346 73.162 22.2132 74.8843 22.2396L75.7619 24.4436C74.1716 25.9944 73.5645 28.4293 74.4224 30.5805C75.2472 32.6525 77.3259 34.0581 79.6156 34.0977L80.4999 36.3083C78.9096 37.859 78.3025 40.2939 79.1603 42.4452C79.9852 44.5172 82.0638 45.9227 84.3536 45.9623L85.2378 48.1729C84.0434 49.3409 83.3836 51.017 83.4759 52.6733L26.1192 75.5711C25.07 74.2778 23.4731 73.4991 21.731 73.4991C21.5 73.4991 21.2691 73.5123 21.0381 73.5387L20.3386 71.7834C21.1239 71.2027 21.7508 70.4175 22.1599 69.5002C22.7736 68.1079 22.8066 66.5638 22.2457 65.1648C21.3879 63.0202 19.329 61.6345 16.9997 61.6345C16.7687 61.6345 16.5377 61.6477 16.3068 61.6741L15.6073 59.9188C16.3926 59.3381 17.0195 58.5528 17.4286 57.6356C18.0423 56.2432 18.0753 54.6991 17.5144 53.3002C16.6565 51.1556 14.5977 49.7698 12.2683 49.7698C12.0374 49.7698 11.8064 49.783 11.5754 49.8094L10.8628 48.0607C11.6546 47.48 12.2881 46.6948 12.7038 45.7644C13.0866 44.8999 13.2449 43.9827 13.179 43.072L70.5093 20.194V20.194ZM71.3144 17.7393L10.8364 41.8777C10.843 41.8777 10.9222 42.0624 10.9618 42.1548C11.7074 44.0289 10.7374 46.1735 8.86334 46.9257C8.72476 46.9785 8.40142 47.0973 8.35523 47.0973H8.34863L10.4009 52.2444C10.3943 52.2246 10.744 52.0728 10.8892 52.0134C11.3379 51.8352 11.7998 51.7495 12.2551 51.7495C13.7069 51.7495 15.0926 52.6139 15.6667 54.0392C16.4124 55.9133 15.4555 58.0513 13.5815 58.8036C13.4429 58.8564 13.1394 58.9685 13.0866 58.9685H13.08L15.1322 64.1156C15.1256 64.0958 15.4753 63.944 15.6205 63.8846C16.0692 63.7065 16.5311 63.6207 16.9865 63.6207C18.4382 63.6207 19.8239 64.4851 20.398 65.9105C21.1437 67.7845 20.1869 69.9225 18.3128 70.6748C18.1742 70.7276 17.8707 70.8398 17.8179 70.8398H17.8113L19.8635 75.9868C19.8569 75.967 20.2067 75.8153 20.3518 75.7559C20.8006 75.5777 21.2625 75.4919 21.7178 75.4919C23.1761 75.4919 24.5619 76.3564 25.1294 77.7817C25.169 77.8741 25.2679 78.0523 25.2613 78.0589L85.7393 53.9205C85.7327 53.9205 85.7129 53.7159 85.6733 53.6235C84.9409 51.7957 85.9835 49.651 87.653 48.912L85.6205 43.8177C85.251 43.9497 84.8551 44.0157 84.4658 44.0157C83.0338 44.0157 81.5755 43.1776 81.008 41.7391C80.2755 39.9112 81.2521 37.793 82.9216 37.0539L80.8892 31.9597C80.5197 32.0916 80.1237 32.1576 79.7344 32.1576C78.3025 32.1576 76.8441 31.3196 76.2766 29.881C75.5442 28.0532 76.5208 25.935 78.1903 25.1959L76.1579 20.1016C75.7817 20.2336 75.3792 20.2996 74.9767 20.2996C73.5315 20.2996 72.0468 19.4747 71.4793 18.0428C71.4331 17.9108 71.3012 17.7459 71.3144 17.7393V17.7393Z" fill="#06C2AC"/>
</svg>
