<svg width="16" height="17" viewBox="0 0 16 17" fill="none" xmlns="http://www.w3.org/2000/svg">
<path d="M12.2726 9.08788L12.0722 9.32055C11.9834 9.42359 11.9404 9.55835 11.9532 9.69375L11.9817 9.99697L12.0505 10.742C12.0736 10.9919 11.9078 11.2202 11.663 11.2756L10.9393 11.4394L10.6398 11.5071C10.506 11.5374 10.3905 11.6213 10.3204 11.7393L10.1635 12.003L9.78766 12.6409C9.65962 12.8582 9.38983 12.9461 9.15837 12.8459L8.48475 12.5545L8.19671 12.4321C8.07101 12.3787 7.92893 12.379 7.80348 12.433L7.52111 12.5545L6.84642 12.8464C6.61542 12.9463 6.34615 12.859 6.2178 12.6425L5.84232 12.0091L5.6855 11.7453C5.61537 11.6274 5.49987 11.5435 5.36604 11.5132L5.06657 11.4455L4.34269 11.2816C4.09798 11.2262 3.9322 10.9981 3.95515 10.7482L4.02414 9.99697L4.05268 9.69375C4.06543 9.55835 4.02246 9.42359 3.93369 9.32055L3.73323 9.08788L3.23985 8.52565C3.07469 8.33744 3.07421 8.05609 3.23874 7.86733L3.73323 7.3L3.93167 7.06967C4.02163 6.96526 4.0645 6.82835 4.05015 6.69128L4.01808 6.38485L3.94954 5.64608C3.92634 5.39608 4.09215 5.16764 4.33703 5.11222L5.06051 4.94849L5.35998 4.88075C5.4938 4.85048 5.60931 4.76654 5.67944 4.64861L5.83627 4.38485L6.21215 3.74699C6.34018 3.52973 6.60997 3.44181 6.84143 3.54194L7.51505 3.83334L7.80309 3.95575C7.92879 4.00917 8.07087 4.00885 8.19633 3.95486L8.47869 3.83334L9.15231 3.54194C9.38377 3.44181 9.65356 3.52973 9.7816 3.74699L10.1575 4.38485L10.3143 4.64861C10.3844 4.76654 10.4999 4.85048 10.6338 4.88075L10.9332 4.94849L11.6569 5.11227C11.9017 5.16767 12.0675 5.39597 12.0444 5.64589L11.9757 6.39091L11.9471 6.69413C11.9344 6.82954 11.9773 6.96429 12.0661 7.06734L12.2666 7.3L12.7611 7.86351C12.9258 8.05116 12.9268 8.33154 12.7634 8.52038L12.2726 9.08788Z" fill="#00CDB4"/>
<path d="M14.3798 8.52C14.5441 8.33148 14.5439 8.05058 14.3792 7.86235L13.329 6.66146C13.2388 6.55837 13.1949 6.42281 13.2075 6.28643L13.3536 4.70003C13.3767 4.45028 13.2111 4.22213 12.9665 4.16658L11.4157 3.81433C11.2818 3.78391 11.1663 3.69975 11.0963 3.58161L10.2844 2.21121C10.1563 1.99507 9.88779 1.90752 9.65695 2.00664L8.1972 2.63348C8.07124 2.68757 7.9286 2.68757 7.80263 2.63348L6.34289 2.00664C6.11205 1.90752 5.84349 1.99507 5.71543 2.21121L4.9039 3.58094C4.83367 3.69947 4.71764 3.78378 4.5832 3.81394L3.03461 4.16141C2.78945 4.21642 2.62319 4.44483 2.64618 4.69503L2.79242 6.2865C2.80495 6.42284 2.76102 6.55835 2.67089 6.66141L1.62112 7.86176C1.45628 8.05025 1.45628 8.33159 1.62112 8.52008L2.67089 9.72043C2.76102 9.82349 2.80495 9.959 2.79242 10.0953L2.64607 11.688C2.62312 11.9377 2.78869 12.1658 3.03322 12.2213L4.58369 12.5735C4.71784 12.604 4.8335 12.6883 4.90346 12.8068L5.71508 14.181C5.84322 14.3979 6.11276 14.4856 6.34403 14.3856L7.80217 13.7552C7.92839 13.7006 8.07152 13.7005 8.19788 13.7547L9.65695 14.3813C9.88779 14.4804 10.1563 14.3928 10.2844 14.1767L11.0963 12.8063C11.1663 12.6881 11.2818 12.604 11.4157 12.5736L12.9665 12.2213C13.2111 12.1658 13.3767 11.9376 13.3536 11.6879L13.2074 10.1009C13.1949 9.96488 13.2386 9.8296 13.3284 9.72658L14.3798 8.52ZM12.2726 9.08789L12.0722 9.32056C11.9834 9.4236 11.9405 9.55835 11.9532 9.69376L11.9817 9.99698L12.0505 10.742C12.0736 10.9919 11.9078 11.2202 11.663 11.2756L10.9393 11.4394L10.6398 11.5071C10.506 11.5374 10.3905 11.6214 10.3204 11.7393L10.1636 12.003L9.78767 12.6409C9.65964 12.8582 9.38985 12.9461 9.15839 12.846L8.48477 12.5546L8.19673 12.4321C8.07103 12.3787 7.92895 12.379 7.80349 12.433L7.52113 12.5546L6.84644 12.8464C6.61544 12.9463 6.34617 12.859 6.21782 12.6425L5.84234 12.0091L5.68551 11.7453C5.61539 11.6274 5.49988 11.5435 5.36605 11.5132L5.06659 11.4455L4.34271 11.2816C4.09799 11.2263 3.93222 10.9981 3.95517 10.7482L4.02416 9.99698L4.0527 9.69376C4.06544 9.55835 4.02248 9.4236 3.9337 9.32056L3.73325 9.08789L3.23987 8.52566C3.07471 8.33745 3.07423 8.0561 3.23876 7.86733L3.73325 7.30001L3.93169 7.06968C4.02164 6.96527 4.06451 6.82836 4.05017 6.69129L4.0181 6.38486L3.94955 5.64609C3.92636 5.39609 4.09216 5.16765 4.33705 5.11223L5.06052 4.9485L5.35999 4.88076C5.49382 4.85049 5.60933 4.76655 5.67945 4.64862L5.83628 4.38486L6.21216 3.747C6.3402 3.52973 6.60999 3.44182 6.84145 3.54194L7.51507 3.83334L7.80311 3.95576C7.92881 4.00918 8.07089 4.00886 8.19634 3.95487L8.47871 3.83334L9.15233 3.54194C9.38379 3.44182 9.65358 3.52973 9.78161 3.747L10.1575 4.38486L10.3143 4.64862C10.3844 4.76655 10.5 4.85049 10.6338 4.88076L10.9333 4.9485L11.6569 5.11228C11.9017 5.16768 12.0675 5.39598 12.0444 5.6459L11.9757 6.39092L11.9471 6.69414C11.9344 6.82955 11.9774 6.9643 12.0661 7.06734L12.2666 7.30001L12.7611 7.86352C12.9258 8.05117 12.9268 8.33155 12.7635 8.52039L12.2726 9.08789Z" fill="#00CDB4"/>
<path d="M7.19665 8.90205C7.00119 9.09818 6.68356 9.09811 6.48818 8.90189L5.79102 8.20173C5.59542 8.00528 5.27733 8.00548 5.08197 8.20216L4.89002 8.3954C4.69606 8.59067 4.69639 8.90598 4.89075 9.10085L6.4883 10.7026C6.68368 10.8985 7.00099 10.8985 7.19635 10.7026L10.9394 6.94933C11.1338 6.75446 11.1341 6.43916 10.9401 6.2439L10.748 6.05048C10.5527 5.85386 10.2347 5.8536 10.0391 6.04989L7.19665 8.90205Z" fill="white"/>
</svg>
